<?xml version="1.0" encoding="UTF-8"?>
<!DOCTYPE svg PUBLIC "-//W3C//DTD SVG 1.1//EN" "http://www.w3.org/Graphics/SVG/1.1/DTD/svg11.dtd">
<!-- Creator: CorelDRAW X6 -->
<svg xmlns="http://www.w3.org/2000/svg" xml:space="preserve" width="100%" height="100%" version="1.1" style="shape-rendering:geometricPrecision; text-rendering:geometricPrecision; image-rendering:optimizeQuality; fill-rule:evenodd; clip-rule:evenodd"
viewBox="0 0 477 463"
 xmlns:xlink="http://www.w3.org/1999/xlink">
 <defs>
  <style type="text/css">
   <![CDATA[
    .str1 {stroke:#008EED;stroke-width:10}
    .str2 {stroke:#404040;stroke-width:10}
    .str0 {stroke:#505050;stroke-width:10}
    .str4 {stroke:#B1B1B1;stroke-width:15}
    .str3 {stroke:#B1B1B1;stroke-width:15;stroke-linejoin:round}
    .fil0 {fill:none}
   ]]>
  </style>
 </defs>
 <g id="Layer_x0020_1">
  <metadata id="CorelCorpID_0Corel-Layer"/>
  <path class="fil0 str0" d="M180 21l0 -12c0,-2 -2,-4 -4,-4l-124 0c-2,0 -4,2 -4,4l0 12 16 33 99 0 17 -33z"/>
  <path class="fil0 str1" d="M48 458l107 0c9,0 17,-7 17,-16l0 0 -141 0 0 0c0,9 8,16 17,16z"/>
  <rect class="fil0 str2" x="205" y="118" width="67.9804" height="96.024"/>
  <path class="fil0 str3" d="M188 79l0 -25 -148 0 0 25 -17 0 -15 165c0,4 3,8 7,8l8 0 -8 184c0,3 4,6 8,6l157 0c4,0 8,-3 8,-6l0 -184 17 0 0 -173 -17 0z"/>
  <path class="fil0 str4" d="M23 252l165 0m-148 -173l148 0"/>
  <path class="fil0 str0" d="M297 21l0 -12c0,-2 2,-4 4,-4l124 0c2,0 4,2 4,4l0 12 -16 33 -99 0 -17 -33z"/>
  <path class="fil0 str1" d="M429 458l-107 0c-9,0 -17,-7 -17,-16l0 0 141 0 0 0c0,9 -8,16 -17,16z"/>
  <path class="fil0 str3" d="M289 79l0 -25 148 0 0 25 17 0 16 165c0,4 -4,8 -8,8l-8 0 8 184c0,3 -4,6 -8,6l-157 0c-4,0 -8,-3 -8,-6l0 -184 -17 0 0 -173 17 0z"/>
  <path class="fil0 str4" d="M454 252l-165 0m148 -173l-148 0"/>
 </g>
</svg>
