<?xml version="1.0" encoding="UTF-8"?>
<!DOCTYPE svg PUBLIC "-//W3C//DTD SVG 1.1//EN" "http://www.w3.org/Graphics/SVG/1.1/DTD/svg11.dtd">
<!-- Creator: CorelDRAW X6 -->
<svg xmlns="http://www.w3.org/2000/svg" xml:space="preserve" width="100%" height="100%" version="1.1" style="shape-rendering:geometricPrecision; text-rendering:geometricPrecision; image-rendering:optimizeQuality; fill-rule:evenodd; clip-rule:evenodd"
viewBox="0 0 500 500"
 xmlns:xlink="http://www.w3.org/1999/xlink">
 <defs>
  <style type="text/css">
   <![CDATA[
    .str0 {stroke:#0078C8;stroke-width:15;stroke-linecap:round}
    .str1 {stroke:#303030;stroke-width:20;stroke-linecap:round}
    .fil1 {fill:none}
    .fil0 {fill:#17A2FF;fill-rule:nonzero}
    .fil2 {fill:#303030;fill-rule:nonzero}
   ]]>
  </style>
 </defs>
 <g id="Layer_x0020_1">
  <metadata id="CorelCorpID_0Corel-Layer"/>
  <g>
   <path class="fil0" d="M405 85l-310 0 0 -25 310 0 0 0 0 25zm47 23l-25 0 0 0 0 -2 0 -1 0 -1 0 -1 0 -1 -1 -1 0 -1 0 -1 -1 -1 0 -1 -1 -1 0 -1 -1 -1 -1 0 0 -1 -1 -1 -1 -1 -1 -1 0 0 -1 -1 -1 0 -1 -1 -1 0 -1 -1 -1 0 -1 -1 -1 0 -1 0 -1 0 -1 -1 -2 0 -1 0 0 -25 3 0 2 1 2 0 3 0 2 1 2 1 2 0 3 1 2 1 2 1 2 1 2 1 1 2 2 1 2 2 2 1 1 2 2 2 1 1 1 2 2 2 1 2 1 2 1 2 1 2 0 3 1 2 1 2 0 2 0 3 0 2 0 3 0 0zm-25 320l0 -320 25 0 0 320 0 0 -25 0zm-22 47l0 -25 0 0 1 0 2 0 1 0 1 -1 1 0 1 0 1 0 1 -1 1 0 1 -1 1 0 1 -1 1 -1 0 0 1 -1 1 -1 1 0 0 -1 1 -1 1 -1 0 -1 1 -1 0 -1 1 -1 0 -1 0 -1 1 -1 0 -1 0 -1 0 -1 0 -1 0 -1 25 0 0 2 0 2 0 3 0 2 -1 2 -1 3 0 2 -1 2 -1 2 -1 2 -1 2 -2 2 -1 2 -1 2 -2 1 -1 2 -2 2 -2 1 -2 1 -1 2 -2 1 -2 1 -2 1 -2 1 -3 1 -2 1 -2 0 -2 1 -3 0 -2 1 -2 0 -3 0 0 0zm-310 -25l310 0 0 25 -310 0 0 0 0 -25zm-47 -22l25 0 0 0 0 1 0 1 0 1 0 1 0 1 1 1 0 1 0 1 1 1 0 1 1 1 0 1 1 1 1 1 0 1 1 0 1 1 1 1 0 0 1 1 1 1 1 0 1 1 1 0 1 1 1 0 1 0 1 0 1 1 1 0 2 0 1 0 0 25 -3 0 -2 0 -2 -1 -3 0 -2 -1 -2 0 -2 -1 -3 -1 -2 -1 -2 -1 -2 -1 -2 -1 -1 -2 -2 -1 -2 -1 -2 -2 -1 -2 -2 -1 -1 -2 -1 -2 -2 -2 -1 -2 -1 -2 -1 -2 -1 -2 0 -2 -1 -3 -1 -2 0 -2 0 -3 0 -2 0 -2 0 0zm25 -320l0 320 -25 0 0 -320 0 0 25 0zm22 -48l0 25 0 0 -1 0 -2 0 -1 1 -1 0 -1 0 -1 0 -1 1 -1 0 -1 1 -1 0 -1 1 -1 0 -1 1 0 0 -1 1 -1 1 -1 1 0 1 -1 0 -1 1 0 1 -1 1 0 1 -1 1 0 1 0 1 -1 1 0 1 0 1 0 1 0 1 0 2 -25 0 0 -3 0 -2 0 -3 0 -2 1 -2 1 -2 0 -3 1 -2 1 -2 1 -2 1 -2 2 -2 1 -2 1 -1 2 -2 1 -2 2 -1 2 -2 2 -1 1 -2 2 -1 2 -1 2 -1 2 -1 3 -1 2 0 2 -1 2 -1 3 0 2 0 2 -1 3 0 0 0z"/>
  </g>
  <line class="fil1 str0" x1="90" y1="188" x2="410" y2= "188" />
  <line class="fil1 str1" x1="375" y1="38" x2="375" y2= "133" />
  <g>
   <path class="fil2" d="M158 133l-11 0 0 0 0 -2 0 -1 0 -1 0 -1 -1 -1 0 -1 0 -1 -1 -1 0 -1 -1 -1 0 -1 -1 -1 0 -1 -1 0 -1 -1 0 -1 -1 -1 -1 0 -1 -1 -1 -1 -1 0 -1 -1 0 0 -1 -1 -1 0 -1 0 -1 -1 -2 0 -1 0 -1 0 -1 0 -1 0 0 -11 2 0 1 0 2 0 2 0 1 1 2 0 1 1 2 0 1 1 2 1 1 0 1 1 2 1 1 1 1 1 1 1 1 1 1 2 1 1 1 1 1 2 1 1 1 1 0 2 1 1 1 2 0 1 0 2 1 2 0 1 0 2 0 2 0 0zm-33 33l0 -11 0 0 1 0 1 0 1 -1 1 0 2 0 1 0 1 -1 1 0 1 -1 0 0 1 -1 1 0 1 -1 1 0 1 -1 1 -1 0 -1 1 0 1 -1 0 -1 1 -1 0 -1 1 -1 0 -1 1 -1 0 -1 0 -1 1 -1 0 -1 0 -1 0 -1 0 -1 11 0 0 1 0 2 0 2 -1 1 0 2 0 1 -1 2 -1 1 0 2 -1 1 -1 2 -1 1 -1 1 -1 2 -1 1 -1 1 -1 1 -1 1 -1 1 -2 1 -1 1 -1 1 -2 0 -1 1 -2 1 -1 0 -2 1 -1 0 -2 0 -2 0 -1 1 -2 0 0 0zm-33 -33l11 0 0 0 0 1 0 1 0 1 0 1 1 1 0 1 0 1 1 1 0 1 1 1 0 1 1 1 0 1 1 1 1 0 0 1 1 1 1 1 1 0 1 1 1 0 1 1 0 0 1 1 1 0 1 1 1 0 2 0 1 0 1 1 1 0 1 0 0 11 -2 0 -1 -1 -2 0 -2 0 -1 0 -2 -1 -1 0 -2 -1 -1 -1 -2 0 -1 -1 -1 -1 -2 -1 -1 -1 -1 -1 -1 -1 -1 -1 -1 -1 -1 -2 -1 -1 -1 -1 -1 -2 -1 -1 0 -2 -1 -1 -1 -2 0 -1 0 -2 -1 -1 0 -2 0 -2 0 -1 0 0zm33 -33l0 11 0 0 -1 0 -1 0 -1 0 -1 0 -2 0 -1 1 -1 0 -1 0 -1 1 0 0 -1 1 -1 0 -1 1 -1 1 -1 0 -1 1 0 1 -1 1 -1 0 0 1 -1 1 0 1 -1 1 0 1 -1 1 0 1 0 1 -1 1 0 1 0 1 0 1 0 2 -11 0 0 -2 0 -2 0 -1 1 -2 0 -2 0 -1 1 -2 1 -1 0 -2 1 -1 1 -1 1 -2 1 -1 1 -1 1 -2 1 -1 1 -1 1 -1 1 -1 2 -1 1 -1 1 0 2 -1 1 -1 2 0 1 -1 2 0 1 -1 2 0 2 0 1 0 2 0 0 0z"/>
  </g>
  <line class="fil1 str1" x1="125" y1="38" x2="125" y2= "133" />
  <g>
   <path class="fil2" d="M408 133l-11 0 0 0 0 -2 0 -1 0 -1 0 -1 -1 -1 0 -1 0 -1 -1 -1 0 -1 -1 -1 0 -1 -1 -1 0 -1 -1 0 -1 -1 0 -1 -1 -1 -1 0 -1 -1 -1 -1 -1 0 -1 -1 0 0 -1 -1 -1 0 -1 0 -1 -1 -2 0 -1 0 -1 0 -1 0 -1 0 0 -11 2 0 1 0 2 0 2 0 1 1 2 0 1 1 2 0 1 1 2 1 1 0 1 1 2 1 1 1 1 1 1 1 1 1 1 2 1 1 1 1 1 2 1 1 1 1 0 2 1 1 1 2 0 1 0 2 1 2 0 1 0 2 0 2 0 0zm-33 33l0 -11 0 0 1 0 1 0 1 -1 1 0 2 0 1 0 1 -1 1 0 1 -1 0 0 1 -1 1 0 1 -1 1 0 1 -1 1 -1 0 -1 1 0 1 -1 0 -1 1 -1 0 -1 1 -1 0 -1 1 -1 0 -1 0 -1 1 -1 0 -1 0 -1 0 -1 0 -1 11 0 0 1 0 2 0 2 -1 1 0 2 0 1 -1 2 -1 1 0 2 -1 1 -1 2 -1 1 -1 1 -1 2 -1 1 -1 1 -1 1 -1 1 -1 1 -2 1 -1 1 -1 1 -2 0 -1 1 -2 1 -1 0 -2 1 -1 0 -2 0 -2 0 -1 1 -2 0 0 0zm-33 -33l11 0 0 0 0 1 0 1 0 1 0 1 1 1 0 1 0 1 1 1 0 1 1 1 0 1 1 1 0 1 1 1 1 0 0 1 1 1 1 1 1 0 1 1 1 0 1 1 0 0 1 1 1 0 1 1 1 0 2 0 1 0 1 1 1 0 1 0 0 11 -2 0 -1 -1 -2 0 -2 0 -1 0 -2 -1 -1 0 -2 -1 -1 -1 -2 0 -1 -1 -1 -1 -2 -1 -1 -1 -1 -1 -1 -1 -1 -1 -1 -1 -1 -2 -1 -1 -1 -1 -1 -2 -1 -1 0 -2 -1 -1 -1 -2 0 -1 0 -2 -1 -1 0 -2 0 -2 0 -1 0 0zm33 -33l0 11 0 0 -1 0 -1 0 -1 0 -1 0 -2 0 -1 1 -1 0 -1 0 -1 1 0 0 -1 1 -1 0 -1 1 -1 1 -1 0 -1 1 0 1 -1 1 -1 0 0 1 -1 1 0 1 -1 1 0 1 -1 1 0 1 0 1 -1 1 0 1 0 1 0 1 0 2 -11 0 0 -2 0 -2 0 -1 1 -2 0 -2 0 -1 1 -2 1 -1 0 -2 1 -1 1 -1 1 -2 1 -1 1 -1 1 -2 1 -1 1 -1 1 -1 1 -1 2 -1 1 -1 1 0 2 -1 1 -1 2 0 1 -1 2 0 1 -1 2 0 2 0 1 0 2 0 0 0z"/>
  </g>
 </g>
</svg>
