<?xml version="1.0" encoding="UTF-8"?>
<!DOCTYPE svg PUBLIC "-//W3C//DTD SVG 1.1//EN" "http://www.w3.org/Graphics/SVG/1.1/DTD/svg11.dtd">
<!-- Creator: CorelDRAW X6 -->
<svg xmlns="http://www.w3.org/2000/svg" xml:space="preserve" width="100%" height="100%" version="1.1" style="shape-rendering:geometricPrecision; text-rendering:geometricPrecision; image-rendering:optimizeQuality; fill-rule:evenodd; clip-rule:evenodd"
viewBox="0 0 500 500"
 xmlns:xlink="http://www.w3.org/1999/xlink">
 <defs>
  <style type="text/css">
   <![CDATA[
    .str2 {stroke:#707070;stroke-width:15}
    .str3 {stroke:#0099FF;stroke-width:20}
    .str1 {stroke:#0099FF;stroke-width:20;stroke-linejoin:round}
    .fil1 {fill:none}
   ]]>
  </style>
 </defs>
 <g id="Layer_x0020_1">
  <metadata id="CorelCorpID_0Corel-Layer"/>
  <path class="fil1 str1" d="M329 379l39 27c3,2 6,3 9,0l29 -29c3,-3 2,-6 0,-9l-27 -39c8,-14 14,-28 18,-44l47 -8c3,0 6,-3 6,-6l0 -42c0,-3 -3,-6 -6,-6l-48 -9c-3,-15 -9,-29 -17,-42l27 -40c2,-3 3,-6 0,-9l-29 -29c-3,-3 -6,-2 -9,0l-40 27c-13,-7 -27,-14 -42,-17l-9 -48c0,-3 -3,-6 -6,-6l-42 0c-3,0 -6,3 -6,6l-9 48c-15,3 -29,10 -42,17l-40 -27c-3,-2 -6,-3 -9,0l-29 29c-3,3 -2,6 0,9l27 40c-8,13 -14,27 -17,42l-48 9c-3,0 -6,3 -6,6l0 42c0,3 3,6 6,6l47 8c4,16 10,30 18,44l-27 39c-2,3 -3,6 0,9l29 29c3,3 6,2 9,0l39 -27c14,8 28,14 44,18l8 47c0,3 3,6 6,6l42 0c3,0 6,-3 6,-6l8 -47c16,-4 30,-10 44,-18z"/>
  <circle class="fil1 str2" cx="250" cy="250" r="100"/>
  <circle class="fil1 str3" cx="250" cy="250" r="48"/>
 </g>
</svg>
