<?xml version="1.0" encoding="UTF-8"?>
<!DOCTYPE svg PUBLIC "-//W3C//DTD SVG 1.1//EN" "http://www.w3.org/Graphics/SVG/1.1/DTD/svg11.dtd">
<!-- Creator: CorelDRAW X6 -->
<svg xmlns="http://www.w3.org/2000/svg" xml:space="preserve" width="100%" height="100%" version="1.1" style="shape-rendering:geometricPrecision; text-rendering:geometricPrecision; image-rendering:optimizeQuality; fill-rule:evenodd; clip-rule:evenodd"
viewBox="0 0 500 500"
 xmlns:xlink="http://www.w3.org/1999/xlink">
 <defs>
  <style type="text/css">
   <![CDATA[
    .str0 {stroke:#2B2A29;stroke-width:10}
    .str1 {stroke:#0078C8;stroke-width:10}
    .str3 {stroke:#0078C8;stroke-width:15}
    .str2 {stroke:#008EED;stroke-width:15}
    .fil0 {fill:none}
   ]]>
  </style>
 </defs>
 <g id="Layer_x0020_1">
  <metadata id="CorelCorpID_0Corel-Layer"/>
  <path class="fil0 str0" d="M200 282l-25 16c-2,1 -5,0 -6,-3l-10 -58c-1,-6 1,-8 4,-13l74 -114c2,-4 3,-5 5,-4"/>
  <path class="fil0 str1" d="M202 302l137 36m-130 -74l122 33m-115 -70l107 28m-128 84l132 36m-114 10l89 23m-51 26l27 6m-55 -251l92 24m-85 -62l78 21m-8 -42l-63 -15"/>
  <path class="fil0 str2" d="M261 447l-63 -83c-8,-9 -5,-13 -3,-23l42 -227c1,-6 3,-9 6,-9l48 0c3,0 4,3 6,9l42 227c2,10 4,14 -3,23l-63 83c-3,4 -10,4 -12,0z"/>
  <path class="fil0 str3" d="M309 50l-84 0c-5,0 -9,4 -8,8l4 29c2,10 9,18 19,18l54 0c10,0 17,-8 18,-18l5 -29c1,-4 -4,-8 -8,-8z"/>
 </g>
</svg>
