<?xml version="1.0" encoding="UTF-8"?>
<!DOCTYPE svg PUBLIC "-//W3C//DTD SVG 1.1//EN" "http://www.w3.org/Graphics/SVG/1.1/DTD/svg11.dtd">
<!-- Creator: CorelDRAW X6 -->
<svg xmlns="http://www.w3.org/2000/svg" xml:space="preserve" width="100%" height="100%" version="1.1" style="shape-rendering:geometricPrecision; text-rendering:geometricPrecision; image-rendering:optimizeQuality; fill-rule:evenodd; clip-rule:evenodd"
viewBox="0 0 500 500"
 xmlns:xlink="http://www.w3.org/1999/xlink">
 <defs>
  <style type="text/css">
   <![CDATA[
    .str3 {stroke:#46B5FF;stroke-width:10}
    .str1 {stroke:#707070;stroke-width:15;stroke-linecap:round;stroke-linejoin:round}
    .str2 {stroke:#0099FF;stroke-width:20;stroke-linecap:round;stroke-linejoin:round}
    .fil1 {fill:none}
   ]]>
  </style>
 </defs>
 <g id="Layer_x0020_1">
  <metadata id="CorelCorpID_0Corel-Layer"/>
  <path class="fil1 str1" d="M192 45l0 86c0,7 -7,14 -14,14l-86 0 100 -100z"/>
  <path class="fil1 str2" d="M192 45l203 0c5,0 9,4 9,10l0 390c0,6 -4,10 -9,10l-293 0c-6,0 -10,-4 -10,-10l0 -300 100 -100z"/>
  <path class="fil1 str3" d="M348 325l-200 0m200 -100l-200 0m200 -100l-133 0m133 150l-200 0m200 -100l-133 0m133 200l-200 0"/>
 </g>
</svg>
