<?xml version="1.0" encoding="UTF-8"?>
<!DOCTYPE svg PUBLIC "-//W3C//DTD SVG 1.1//EN" "http://www.w3.org/Graphics/SVG/1.1/DTD/svg11.dtd">
<!-- Creator: CorelDRAW X6 -->
<svg xmlns="http://www.w3.org/2000/svg" xml:space="preserve" width="100%" height="100%" version="1.1" style="shape-rendering:geometricPrecision; text-rendering:geometricPrecision; image-rendering:optimizeQuality; fill-rule:evenodd; clip-rule:evenodd"
viewBox="0 0 500 500"
 xmlns:xlink="http://www.w3.org/1999/xlink">
 <defs>
  <style type="text/css">
   <![CDATA[
    .str3 {stroke:#0078C8;stroke-width:10}
    .str2 {stroke:#8A8A8A;stroke-width:10}
    .str1 {stroke:#0099FF;stroke-width:15}
    .str0 {stroke:#303030;stroke-width:20}
    .fil0 {fill:none}
   ]]>
  </style>
 </defs>
 <g id="Layer_x0020_1">
  <metadata id="CorelCorpID_0Corel-Layer"/>
  <path class="fil0 str0" d="M53 310l256 -257c3,-2 5,-3 8,-3l122 0c6,0 11,5 11,11l0 122c0,3 -1,6 -3,8l-256 256c-5,4 -12,4 -16,0l-122 -122c-4,-4 -4,-11 0,-15z"/>
  <rect class="fil0 str1" transform="matrix(0.712295 -0.712017 1.01761 1.01721 95.1274 313.341)" width="299.997" height="90" rx="8" ry="8"/>
  <circle class="fil0 str2" transform="matrix(0.763179 -0.762881 0.763179 0.762881 388.951 111.181)" r="27"/>
  <path class="fil0 str3" d="M145 315l120 -121m-80 161l91 -90m-111 70l89 -89"/>
 </g>
</svg>
