<?xml version="1.0" encoding="UTF-8"?>
<!DOCTYPE svg PUBLIC "-//W3C//DTD SVG 1.1//EN" "http://www.w3.org/Graphics/SVG/1.1/DTD/svg11.dtd">
<!-- Creator: CorelDRAW X6 -->
<svg xmlns="http://www.w3.org/2000/svg" xml:space="preserve" width="100%" height="100%" version="1.1" style="shape-rendering:geometricPrecision; text-rendering:geometricPrecision; image-rendering:optimizeQuality; fill-rule:evenodd; clip-rule:evenodd"
viewBox="0 0 500 500"
 xmlns:xlink="http://www.w3.org/1999/xlink">
 <defs>
  <style type="text/css">
   <![CDATA[
    .str3 {stroke:#0099FF;stroke-width:10;stroke-linejoin:round}
    .str2 {stroke:#46B5FF;stroke-width:10;stroke-linejoin:round}
    .str1 {stroke:#979797;stroke-width:10;stroke-linejoin:round}
    .str4 {stroke:#74C7FF;stroke-width:15;stroke-linecap:round}
    .str5 {stroke:#0083DB;stroke-width:20;stroke-linejoin:round}
    .fil1 {fill:none}
   ]]>
  </style>
 </defs>
 <g id="Layer_x0020_1">
  <metadata id="CorelCorpID_0Corel-Layer"/>
  <path class="fil1 str1" d="M286 50l64 0 0 92c0,3 -2,5 -5,5l-54 0c-3,0 -5,-2 -5,-5l0 -92z"/>
  <path class="fil1 str2" d="M123 50l254 0 0 114c0,7 -6,13 -13,13l-228 0c-7,0 -13,-6 -13,-13l0 -114z"/>
  <polygon class="fil1 str3" points="105,450 395,450 395,250 105,250 "/>
  <path class="fil1 str4" d="M359 290l-218 0m218 37l-218 0m218 36l-218 0m218 36l-218 0"/>
  <path class="fil1 str5" d="M73 50l332 0 45 45 0 332c0,13 -10,23 -23,23l-354 0c-13,0 -23,-10 -23,-23l0 -354c0,-13 10,-23 23,-23z"/>
 </g>
</svg>
