<?xml version="1.0" encoding="UTF-8"?>
<!DOCTYPE svg PUBLIC "-//W3C//DTD SVG 1.1//EN" "http://www.w3.org/Graphics/SVG/1.1/DTD/svg11.dtd">
<!-- Creator: CorelDRAW X6 -->
<svg xmlns="http://www.w3.org/2000/svg" xml:space="preserve" width="100%" height="100%" version="1.1" style="shape-rendering:geometricPrecision; text-rendering:geometricPrecision; image-rendering:optimizeQuality; fill-rule:evenodd; clip-rule:evenodd"
viewBox="0 0 500 500"
 xmlns:xlink="http://www.w3.org/1999/xlink">
 <defs>
  <style type="text/css">
   <![CDATA[
    .str1 {stroke:#0099FF;stroke-width:20;stroke-linejoin:round}
    .str0 {stroke:#0099FF;stroke-width:25}
    .str2 {stroke:#404040;stroke-width:40;stroke-linecap:round}
    .fil0 {fill:none}
   ]]>
  </style>
 </defs>
 <g id="Layer_x0020_1">
  <metadata id="CorelCorpID_0Corel-Layer"/>
  <g id="_1092530256">
   <path class="fil0 str0" d="M418 149l0 -98c0,-6 -5,-10 -10,-10l-48 0c-5,0 -10,4 -10,10l0 48"/>
   <path class="fil0 str1" d="M90 467l90 0 0 -150c0,-11 9,-20 20,-20l90 0c11,0 20,9 20,20l0 150 100 0c17,0 30,-14 30,-30l0 -200 -178 -133c-3,-3 -7,-4 -12,-4 -5,1 -9,2 -13,4l-177 133 0 200c0,16 13,30 30,30z"/>
   <path class="fil0 str2" d="M30 197l205 -160c10,-5 20,-5 30,0l205 150"/>
  </g>
 </g>
</svg>
