<?xml version="1.0" encoding="UTF-8"?>
<!DOCTYPE svg PUBLIC "-//W3C//DTD SVG 1.1//EN" "http://www.w3.org/Graphics/SVG/1.1/DTD/svg11.dtd">
<!-- Creator: CorelDRAW X6 -->
<svg xmlns="http://www.w3.org/2000/svg" xml:space="preserve" width="100%" height="100%" version="1.1" style="shape-rendering:geometricPrecision; text-rendering:geometricPrecision; image-rendering:optimizeQuality; fill-rule:evenodd; clip-rule:evenodd"
viewBox="0 0 500 500"
 xmlns:xlink="http://www.w3.org/1999/xlink">
 <defs>
  <style type="text/css">
   <![CDATA[
    .str0 {stroke:#484848;stroke-width:5}
    .str1 {stroke:#008EED;stroke-width:15;stroke-linejoin:round}
    .fil0 {fill:none}
   ]]>
  </style>
 </defs>
 <g id="Layer_x0020_1">
  <metadata id="CorelCorpID_0Corel-Layer"/>
  <path class="fil0 str0" d="M315 69c-56,5 -97,54 -92,110 0,2 1,4 1,6l102 86c2,0 4,0 7,-1 55,-5 96,-53 91,-109 -5,-56 -54,-97 -109,-92zm-105 175l13 11 -158 190 -5 -22 150 -179zm20 92l37 -44 -34 -28 -153 183"/>
  <path class="fil0 str1" d="M215 205c3,5 0,12 -4,17l-155 185 10 43 55 -11 6 -7 -2 -25 12 -1 17 -20 12 -1 12 -13 -2 -13 9 -10 -4 -9 6 -7 18 6 6 -8 39 9 42 -50c4,-5 11,-9 16,-8l16 14c3,0 5,-1 8,-1 67,-6 117,-65 111,-133 -6,-68 -65,-117 -133,-112 -67,6 -117,66 -111,134 0,2 0,5 1,7l15 14zm152 -88c13,11 15,31 4,44 -2,2 -4,4 -6,6l-45 -38c1,-3 2,-5 4,-8 11,-13 30,-15 43,-4z"/>
 </g>
</svg>
