<?xml version="1.0" encoding="UTF-8"?>
<!DOCTYPE svg PUBLIC "-//W3C//DTD SVG 1.1//EN" "http://www.w3.org/Graphics/SVG/1.1/DTD/svg11.dtd">
<!-- Creator: CorelDRAW X6 -->
<svg xmlns="http://www.w3.org/2000/svg" xml:space="preserve" width="100%" height="100%" version="1.1" style="shape-rendering:geometricPrecision; text-rendering:geometricPrecision; image-rendering:optimizeQuality; fill-rule:evenodd; clip-rule:evenodd"
viewBox="0 0 500 500"
 xmlns:xlink="http://www.w3.org/1999/xlink">
 <defs>
  <style type="text/css">
   <![CDATA[
    .str1 {stroke:#17A2FF;stroke-width:10}
    .str0 {stroke:#303030;stroke-width:15;stroke-linecap:round;stroke-linejoin:round}
    .fil0 {fill:none}
   ]]>
  </style>
 </defs>
 <g id="Layer_x0020_1">
  <metadata id="CorelCorpID_0Corel-Layer"/>
  <path class="fil0 str0" d="M145 391l53 0 0 -31 -147 0c-12,0 -21,-9 -21,-21l0 -262c0,-11 9,-21 21,-21l398 0c12,0 21,10 21,21l0 262c0,12 -9,21 -21,21l-147 0 0 31 53 0c8,0 15,8 15,16l0 37 -240 0 0 -37c0,-8 7,-16 15,-16zm283 -52l-31 0m-173 0l57 0"/>
  <path class="fil0 str1" d="M64 80l375 0c5,0 10,5 10,10l0 215c0,6 -5,10 -10,10l-375 0c-6,0 -11,-4 -11,-10l0 -215c0,-5 5,-10 11,-10z"/>
 </g>
</svg>
