<?xml version="1.0" encoding="UTF-8"?>
<!DOCTYPE svg PUBLIC "-//W3C//DTD SVG 1.1//EN" "http://www.w3.org/Graphics/SVG/1.1/DTD/svg11.dtd">
<!-- Creator: CorelDRAW X6 -->
<svg xmlns="http://www.w3.org/2000/svg" xml:space="preserve" width="100%" height="100%" version="1.1" style="shape-rendering:geometricPrecision; text-rendering:geometricPrecision; image-rendering:optimizeQuality; fill-rule:evenodd; clip-rule:evenodd"
viewBox="0 0 500 500"
 xmlns:xlink="http://www.w3.org/1999/xlink">
 <defs>
  <style type="text/css">
   <![CDATA[
    .str2 {stroke:#008EED;stroke-width:10}
    .str0 {stroke:#303030;stroke-width:10}
    .str1 {stroke:#006DB6;stroke-width:15;stroke-linejoin:round}
    .fil0 {fill:none}
   ]]>
  </style>
 </defs>
 <g id="Layer_x0020_1">
  <metadata id="CorelCorpID_0Corel-Layer"/>
  <path class="fil0 str0" d="M320 331l0 113c0,5 -5,5 -10,0l-55 -55c-5,-5 -5,-5 -10,0l-55 55c-5,5 -10,5 -10,0l0 -114"/>
  <polygon class="fil0 str1" points="144,96 169,96 175,72 199,79 211,57 233,69 250,52 267,69 289,57 301,79 325,72 331,96 356,96 356,121 380,127 374,151 395,163 383,185 400,202 383,219 395,241 374,253 380,277 356,283 356,308 331,308 325,332 301,326 289,347 267,335 250,352 233,335 211,347 199,326 175,332 169,308 144,308 144,283 120,277 126,253 105,241 117,219 100,202 117,185 105,163 126,151 120,127 144,121 "/>
  <circle class="fil0 str2" cx="250" cy="202" r="88"/>
 </g>
</svg>
