<?xml version="1.0" encoding="UTF-8"?>
<!DOCTYPE svg PUBLIC "-//W3C//DTD SVG 1.1//EN" "http://www.w3.org/Graphics/SVG/1.1/DTD/svg11.dtd">
<!-- Creator: CorelDRAW X6 -->
<svg xmlns="http://www.w3.org/2000/svg" xml:space="preserve" width="100%" height="100%" version="1.1" style="shape-rendering:geometricPrecision; text-rendering:geometricPrecision; image-rendering:optimizeQuality; fill-rule:evenodd; clip-rule:evenodd"
viewBox="0 0 500 500"
 xmlns:xlink="http://www.w3.org/1999/xlink">
 <defs>
  <style type="text/css">
   <![CDATA[
    .str2 {stroke:#484848;stroke-width:7.5}
    .str0 {stroke:#006DB6;stroke-width:10;stroke-linecap:round}
    .str3 {stroke:#0099FF;stroke-width:20}
    .str1 {stroke:#303030;stroke-width:20}
    .fil0 {fill:none}
   ]]>
  </style>
 </defs>
 <g id="Layer_x0020_1">
  <metadata id="CorelCorpID_0Corel-Layer"/>
  <path class="fil0 str0" d="M430 233c-52,31 -105,49 -157,53m-46 0c-52,-4 -105,-22 -157,-53"/>
  <path class="fil0 str1" d="M192 134l0 -39c0,-6 4,-10 9,-10l98 0c5,0 9,4 9,10l0 39"/>
  <rect class="fil0 str2" x="231" y="250" width="38.8281" height="67.9414" rx="10" ry="10"/>
  <path class="fil0 str3" d="M75 134l350 0c16,0 29,13 29,29l0 223c0,16 -13,29 -29,29l-350 0c-16,0 -29,-13 -29,-29l0 -223c0,-16 13,-29 29,-29z"/>
 </g>
</svg>
