<?xml version="1.0" encoding="UTF-8"?>
<!DOCTYPE svg PUBLIC "-//W3C//DTD SVG 1.1//EN" "http://www.w3.org/Graphics/SVG/1.1/DTD/svg11.dtd">
<!-- Creator: CorelDRAW X6 -->
<svg xmlns="http://www.w3.org/2000/svg" xml:space="preserve" width="100%" height="100%" version="1.1" style="shape-rendering:geometricPrecision; text-rendering:geometricPrecision; image-rendering:optimizeQuality; fill-rule:evenodd; clip-rule:evenodd"
viewBox="0 0 500 500"
 xmlns:xlink="http://www.w3.org/1999/xlink">
 <defs>
  <style type="text/css">
   <![CDATA[
    .str2 {stroke:#303030;stroke-width:10}
    .str0 {stroke:#005792;stroke-width:15}
    .str1 {stroke:#0099FF;stroke-width:15}
    .fil0 {fill:none}
   ]]>
  </style>
 </defs>
 <g id="Layer_x0020_1">
  <metadata id="CorelCorpID_0Corel-Layer"/>
  <path class="fil0 str0" d="M358 93l36 0c8,0 14,6 14,14l0 329c0,8 -6,14 -14,14l-288 0c-8,0 -14,-6 -14,-14l0 -329c0,-8 6,-14 14,-14l36 0"/>
  <path class="fil0 str1" d="M369 121l-238 0c-2,0 -4,-2 -4,-4 -1,-2 -1,-5 1,-6l28 -36c1,-1 2,-1 3,-1l58 0c3,0 5,-3 5,-6l0 -12c0,-3 2,-6 5,-6l46 0c3,0 5,3 5,6l0 12c0,3 2,6 5,6l58 0c1,0 2,0 3,1l28 36c2,1 2,4 1,6 0,2 -2,4 -4,4z"/>
  <line class="fil0 str2" x1="147" y1="162" x2="371" y2= "162" />
  <line class="fil0 str2" x1="147" y1="185" x2="327" y2= "185" />
  <line class="fil0 str2" x1="147" y1="236" x2="327" y2= "236" />
  <line class="fil0 str2" x1="147" y1="259" x2="262" y2= "259" />
  <line class="fil0 str2" x1="147" y1="310" x2="289" y2= "310" />
  <line class="fil0 str2" x1="147" y1="334" x2="327" y2= "334" />
  <line class="fil0 str2" x1="311" y1="385" x2="147" y2= "385" />
  <line class="fil0 str2" x1="147" y1="408" x2="344" y2= "408" />
 </g>
</svg>
