<?xml version="1.0" encoding="UTF-8"?>
<!DOCTYPE svg PUBLIC "-//W3C//DTD SVG 1.1//EN" "http://www.w3.org/Graphics/SVG/1.1/DTD/svg11.dtd">
<!-- Creator: CorelDRAW X6 -->
<svg xmlns="http://www.w3.org/2000/svg" xml:space="preserve" width="100%" height="100%" version="1.1" style="shape-rendering:geometricPrecision; text-rendering:geometricPrecision; image-rendering:optimizeQuality; fill-rule:evenodd; clip-rule:evenodd"
viewBox="0 0 500 500"
 xmlns:xlink="http://www.w3.org/1999/xlink">
 <defs>
  <style type="text/css">
   <![CDATA[
    .str1 {stroke:#0061A2;stroke-width:10}
    .str2 {stroke:#0099FF;stroke-width:20}
    .fil1 {fill:none}
   ]]>
  </style>
 </defs>
 <g id="Layer_x0020_1">
  <metadata id="CorelCorpID_0Corel-Layer"/>
  <path class="fil1 str1" d="M327 178l98 -98m-345 345l98 -98"/>
  <path class="fil1 str2" d="M433 88c43,43 1,156 -94,251 -95,95 -208,137 -251,94l-32 -32c-8,-8 -8,-22 0,-31l67 -66c9,-9 23,-9 31,0l32 31c19,20 39,0 94,-55 55,-55 75,-75 55,-94l-31 -32c-9,-8 -9,-22 0,-31l66 -67c9,-8 23,-8 31,0l32 32z"/>
 </g>
</svg>
