<?xml version="1.0" encoding="UTF-8"?>
<!DOCTYPE svg PUBLIC "-//W3C//DTD SVG 1.1//EN" "http://www.w3.org/Graphics/SVG/1.1/DTD/svg11.dtd">
<!-- Creator: CorelDRAW X6 -->
<svg xmlns="http://www.w3.org/2000/svg" xml:space="preserve" width="100%" height="100%" version="1.1" style="shape-rendering:geometricPrecision; text-rendering:geometricPrecision; image-rendering:optimizeQuality; fill-rule:evenodd; clip-rule:evenodd"
viewBox="0 0 500 500"
 xmlns:xlink="http://www.w3.org/1999/xlink">
 <defs>
  <style type="text/css">
   <![CDATA[
    .str2 {stroke:#303030;stroke-width:5}
    .str1 {stroke:#008EED;stroke-width:15;stroke-linejoin:round}
    .str0 {stroke:#303030;stroke-width:15;stroke-linejoin:round}
    .fil0 {fill:none}
   ]]>
  </style>
 </defs>
 <g id="Layer_x0020_1">
  <metadata id="CorelCorpID_0Corel-Layer"/>
  <path class="fil0 str0" d="M188 297l263 -157c-16,-17 -49,-8 -110,11 -44,13 -114,47 -185,118l32 28z"/>
  <path class="fil0 str0" d="M188 203l26 16c-12,9 -25,19 -38,31 -7,-6 -13,-13 -20,-19l32 -28zm79 47l184 110c-16,17 -49,8 -110,-11 -32,-10 -77,-30 -127,-68l53 -31z"/>
  <path class="fil0 str1" d="M171 193l17 10 -32 28 -1 -1c-12,-21 -37,-29 -57,-41l-18 -11c-29,-17 -39,-54 -23,-83 17,-29 55,-39 84,-22l28 16c29,17 39,54 22,83 -5,9 -11,15 -20,21zm-37 -100l21 11c20,12 28,38 17,57 -11,20 -37,26 -58,14l-20 -12c-21,-12 -29,-38 -18,-57 11,-19 38,-25 58,-13zm37 214l17 -10 -32 -28 -1 1c-12,21 -37,29 -57,41l-18 11c-29,17 -39,54 -23,83 17,29 55,39 84,22l28 -16c29,-17 39,-54 22,-83 -5,-9 -11,-15 -20,-21zm-37 100l21 -11c20,-12 28,-38 17,-57 -11,-20 -37,-26 -58,-14l-20 12c-21,12 -29,38 -18,57 11,19 38,25 58,13z"/>
  <circle class="fil0 str2" transform="matrix(2.90629E-014 -1.09735 1.09735 2.90629E-014 213.426 249.999)" r="13"/>
 </g>
</svg>
